<?xml version="1.0" encoding="UTF-8" standalone="no"?>
<!-- Created with Inkscape (http://www.inkscape.org/) -->

<svg
   width="7.3384113mm"
   height="7.3378677mm"
   viewBox="0 0 7.3384113 7.3378677"
   version="1.1"
   id="svg1"
   xml:space="preserve"
   sodipodi:docname="icon-email.svg"
   inkscape:version="1.4.3 (0d15f75, 2025-12-25)"
   xmlns:inkscape="http://www.inkscape.org/namespaces/inkscape"
   xmlns:sodipodi="http://sodipodi.sourceforge.net/DTD/sodipodi-0.dtd"
   xmlns="http://www.w3.org/2000/svg"
   xmlns:svg="http://www.w3.org/2000/svg"><sodipodi:namedview
     id="namedview1"
     pagecolor="#ffffff"
     bordercolor="#000000"
     borderopacity="0.25"
     inkscape:showpageshadow="2"
     inkscape:pageopacity="0.0"
     inkscape:pagecheckerboard="0"
     inkscape:deskcolor="#d1d1d1"
     inkscape:document-units="mm"
     showguides="true"
     inkscape:zoom="29.098201"
     inkscape:cx="13.88402"
     inkscape:cy="13.866837"
     inkscape:window-width="1920"
     inkscape:window-height="1009"
     inkscape:window-x="1912"
     inkscape:window-y="119"
     inkscape:window-maximized="1"
     inkscape:current-layer="layer1"><inkscape:page
       x="0"
       y="0"
       width="7.3384113"
       height="7.3378677"
       id="page2"
       margin="0"
       bleed="0" /></sodipodi:namedview><defs
     id="defs1" /><g
     inkscape:label="Layer 1"
     inkscape:groupmode="layer"
     id="layer1"
     transform="translate(-0.02657545,-0.01027989)"><path
       style="fill:#000000"
       d="m 2.0148634,7.3438799 c -0.759542,-0.05064 -1.44052295,-0.510667 -1.77482395,-1.198958 -0.120985,-0.249097 -0.188626,-0.505562 -0.208664,-0.79117 -0.0064,-0.09139 -0.0064,-3.256751 0,-3.34814 0.0098,-0.139711 0.02773,-0.254709 0.0595,-0.381725 0.126576,-0.505976 0.439083,-0.95169601 0.87367899,-1.24610401 0.31964096,-0.216534 0.67171096,-0.336996 1.05940196,-0.362478 0.101621,-0.0067 3.242089,-0.0067 3.34371,0 0.495042,0.03254 0.946243,0.226024 1.311659,0.56247 0.232297,0.213882 0.420338,0.48803701 0.535776,0.78114101 0.08419,0.213761 0.129597,0.416784 0.145154,0.648989 0.0063,0.09341 0.0063,3.249126 5.1e-5,3.343554 -0.03989,0.602176 -0.326708,1.153024 -0.795643,1.528074 -0.346448,0.277084 -0.753852,0.435215 -1.197075,0.464635 -0.08304,0.0055 -3.269842,0.0052 -3.352727,-2.88e-4 z m 3.409883,-0.569732 c 0.324374,-0.04472 0.593543,-0.163863 0.834069,-0.369203 0.271171,-0.231502 0.459294,-0.56443 0.518827,-0.918185 0.02181,-0.129583 0.02093,-0.05426 0.02093,-1.804785 0,-1.774384 0.0011,-1.688106 -0.02344,-1.823131 -0.04743,-0.260859 -0.154159,-0.494784 -0.321215,-0.704027 -0.05169,-0.06475 -0.168496,-0.18155001 -0.233242,-0.23324301 -0.233461,-0.18639 -0.501279,-0.298826 -0.801413,-0.336452 -0.06177,-0.0077 -0.158322,-0.0082 -1.725745,-0.0082 -1.584681,0 -1.663236,3.84e-4 -1.724522,0.0084 -0.302431,0.03967 -0.567396,0.151258 -0.79805,0.336085 -0.06504,0.05211 -0.18177996,0.16893201 -0.23324196,0.23339001 -0.191024,0.239263 -0.304685,0.514879 -0.338564,0.820982 -0.009,0.08133 -0.009,3.326437 0,3.407765 0.06259,0.565512 0.40806996,1.039274 0.92496596,1.268422 0.142504,0.06317 0.316442,0.109219 0.465529,0.123234 0.02901,0.0027 0.05997,0.0057 0.0688,0.0065 0.0088,8.7e-4 0.757001,0.0013 1.662604,9.24e-4 1.528977,-6.11e-4 1.650632,-0.0012 1.703707,-0.0085 z"
       id="path1"
       sodipodi:nodetypes="sssccsccssccsssscssscsscscsssssccccc" /><rect
       style="fill:#000000;stroke-width:0.319292"
       id="rect1"
       width="5.223279"
       height="0.56354553"
       x="1.1902643"
       y="0.63756555"
       ry="0.21612847"
       transform="rotate(45)" /><rect
       style="fill:#000000;stroke-width:0.319292"
       id="rect2"
       width="5.223279"
       height="0.56354553"
       x="-4.0338087"
       y="-6.407763"
       ry="0.21612847"
       transform="rotate(135)" /></g></svg>
